<svg width="18" height="18" viewBox="0 0 18 18" fill="none" xmlns="http://www.w3.org/2000/svg">
<g id="Group 1">
<path id="Vector" d="M8.43032 12.1199C8.24032 12.1199 8.05032 12.0499 7.90032 11.8999C7.76084 11.7588 7.68262 11.5684 7.68262 11.3699C7.68262 11.1715 7.76084 10.9811 7.90032 10.8399L9.93032 8.80994L7.90032 6.77994C7.76084 6.6388 7.68262 6.44837 7.68262 6.24994C7.68262 6.05151 7.76084 5.86108 7.90032 5.71994C8.19032 5.42994 8.67032 5.42994 8.96032 5.71994L11.5203 8.27994C11.8103 8.56994 11.8103 9.04994 11.5203 9.33994L8.96032 11.8999C8.82032 12.0499 8.62032 12.1199 8.43032 12.1199Z" fill="#48086D"/>
<path id="Vector_2" d="M10.92 9.56006H0.75C0.34 9.56006 0 9.22006 0 8.81006C0 8.40006 0.34 8.06006 0.75 8.06006H10.92C11.33 8.06006 11.67 8.40006 11.67 8.81006C11.67 9.22006 11.33 9.56006 10.92 9.56006Z" fill="#48086D"/>
<path id="Vector_3" d="M8.75 17.5C8.34 17.5 8 17.16 8 16.75C8 16.34 8.34 16 8.75 16C13.02 16 16 13.02 16 8.75C16 4.48 13.02 1.5 8.75 1.5C8.34 1.5 8 1.16 8 0.75C8 0.34 8.34 0 8.75 0C13.9 0 17.5 3.6 17.5 8.75C17.5 13.9 13.9 17.5 8.75 17.5Z" fill="#48086D"/>
</g>
</svg>
